Coordinates
version=1
nRows=9
nColumns=38
inDegrees=yes

Units are S.I. units (second, meters, Newtons, ...)
Angles are in degrees.

endheader
time	pelvis_tilt	pelvis_list	pelvis_rotation	pelvis_tx	pelvis_ty	pelvis_tz	hip_flexion_r	hip_adduction_r	hip_rotation_r	knee_angle_r	ankle_angle_r	subtalar_angle_r	mtp_angle_r	hip_flexion_l	hip_adduction_l	hip_rotation_l	knee_angle_l	ankle_angle_l	subtalar_angle_l	mtp_angle_l	lumbar_extension	lumbar_bending	lumbar_rotation	arm_flex_r	arm_add_r	arm_rot_r	elbow_flex_r	pro_sup_r	wrist_flex_r	wrist_dev_r	arm_flex_l	arm_add_l	arm_rot_l	elbow_flex_l	pro_sup_l	wrist_flex_l	wrist_dev_l
      2.43000000	      0.51224208	     -2.76299595	     -1.70407597	     -0.14227443	      0.89565586	     -0.16792622	    -16.62537056	      7.08347305	     -5.30247862	    -16.46168500	     12.08641910	      9.73886414	      6.05320284	     28.87274104	      1.52009929	      0.50137156	    -15.64041819	      1.88065743	      3.56487391	      7.86800962	     -8.13828284	      5.60761022	      2.98285261	      0.36085965	    -23.03767541	      6.04240553	     38.59238595	     86.51662706	      0.00000000	      0.00000000	     -6.08324687	    -12.54069223	     19.64849592	      9.96392763	     86.51662706	      0.00000000	      0.00000000
      2.44000000	      0.33774129	     -2.57933781	     -1.74739778	     -0.12719476	      0.89396070	     -0.16751750	    -16.66166066	      6.66570128	     -5.40960289	    -17.80902448	     11.26527445	     10.35920580	      7.71124535	     28.93657780	      1.98017453	      0.90307770	    -16.95139490	      0.72444786	      2.96768309	      7.73789315	     -7.66749464	      5.24859975	      2.79616529	     -0.00685499	    -22.86893597	      5.82124530	     38.61739352	     86.51662706	      0.00000000	      0.00000000	     -6.34201950	    -12.56600824	     20.16864377	      9.46463472	     86.51662706	      0.00000000	      0.00000000
      2.45000000	      0.15017914	     -2.32654898	     -1.70658192	     -0.11193981	      0.89226020	     -0.16716666	    -16.59227927	      6.19769646	     -5.53780213	    -19.28212166	     10.14740415	     10.92035224	      9.66810166	     29.01457489	      2.53427007	      1.40845741	    -18.28106842	     -0.67804561	      1.99644949	      7.55981537	     -7.14584310	      4.79487606	      2.49084854	     -0.40534135	    -22.63675659	      5.58005839	     38.54566802	     86.51662706	      0.00000000	      0.00000000	     -6.60173898	    -12.62394183	     20.70200937	      8.99529568	     86.51662706	      0.00000000	      0.00000000
      2.46000000	     -0.03806612	     -1.98971394	     -1.58056028	     -0.09661047	      0.89084310	     -0.16691487	    -16.39590055	      5.67051334	     -5.68476581	    -20.90494592	      8.66021822	     11.39006324	     11.88814735	     29.13157727	      3.16784828	      1.97235087	    -19.60284413	     -2.20320066	      0.75372769	      7.34703335	     -6.59704332	      4.23983609	      2.07595999	     -0.82375243	    -22.34210668	      5.31471502	     38.37551368	     86.51662706	      0.00000000	      0.00000000	     -6.84437009	    -12.71348793	     21.23231735	      8.56711223	     86.51662706	      0.00000000	      0.00000000
      2.47000000	     -0.22447600	     -1.55687322	     -1.38265336	     -0.08135803	      0.88996705	     -0.16678109	    -16.04675150	      5.07034119	     -5.84732913	    -22.70457532	      6.73776455	     11.73913845	     14.30480265	     29.27648756	      3.86664651	      2.55215565	    -20.92813205	     -3.69806794	     -0.63480678	      7.11520723	     -6.04588284	      3.57997820	      1.57596659	     -1.25513206	    -21.98854065	      5.02405443	     38.10971668	     86.51662706	      0.00000000	      0.00000000	     -7.05315574	    -12.83368683	     21.74154437	      8.19224683	     86.51662706	      0.00000000	      0.00000000
      2.48000000	     -0.41020864	     -1.02798000	     -1.13840788	     -0.06628319	      0.88969501	     -0.16673611	    -15.52094651	      4.38510038	     -6.01749702	    -24.70727824	      4.33862602	     11.93833060	     16.82337324	     29.41225167	      4.62046038	      3.11055821	    -22.27118607	     -5.00688307	     -2.03435400	      6.87803261	     -5.51444982	      2.81871577	      1.02837086	     -1.69656596	    -21.58293410	      4.71134674	     37.75515747	     86.51662706	      0.00000000	      0.00000000	     -7.21509135	    -12.98374664	     22.21073984	      7.88321289	     86.51662706	      0.00000000	      0.00000000
      2.49000000	     -0.58986194	     -0.41850663	     -0.87974820	     -0.05135822	      0.88988873	     -0.16670859	    -14.80136066	      3.61033891	     -6.17798387	    -26.93443638	      1.46485582	     11.95376539	     19.32823286	     29.49821363	      5.42275633	      3.61620681	    -23.61788449	     -5.99628988	     -3.31673403	      6.64411686	     -5.02049219	      1.96850223	      0.47736040	     -2.14753176	    -21.13576171	      4.38524788	     37.32172100	     86.51662706	      0.00000000	      0.00000000	     -7.32177388	    -13.16276913	     22.62113169	      7.65215548	     86.51662706	      0.00000000	      0.00000000
      2.50000000	     -0.75363063	      0.24569224	     -0.63764575	     -0.03652209	      0.89033969	     -0.16661930	    -13.87814814	      2.75323275	     -6.29988502	    -29.39835328	     -1.82275074	     11.74295447	     21.69380785	     29.50183022	      6.26559933	      4.04366258	    -24.92113695	     -6.57421494	     -4.37545380	      6.41582295	     -4.57756757	      1.05036028	     -0.03479281	     -2.60697219	    -20.66072331	      4.06000576	     36.82068145	     86.51662706	      0.00000000	      0.00000000	     -7.36886407	    -13.36913681	     22.95544468	      7.51004140	     86.51662706	      0.00000000	      0.00000000
      2.51000000	     -0.89728748	      0.93859573	     -0.43625416	     -0.02181943	      0.89090881	     -0.16641824	    -12.74667964	      1.83425279	     -6.34523970	    -32.09918455	     -5.39796532	     11.25385939	     23.79806583	     29.39866636	      7.13229342	      4.37305299	    -26.11938237	     -6.70025080	     -5.13694355	      6.18989564	     -4.19552946	      0.09142809	     -0.47587114	     -3.07023381	    -20.17377264	      3.75481063	     36.26289442	     86.51662706	      0.00000000	      0.00000000	     -7.35503454	    -13.59986416	     23.19929140	      7.46577102	     86.51662706	      0.00000000	      0.00000000
